<svg xmlns="http://www.w3.org/2000/svg" version="1.1" width="178.572" height="50"><g fill="#fff"><path d="M39.425 35.729l.021.755.618-.468c.236-.172.364-.408.364-.663 0-.313-.173-.242-.37-.096l-.632.471zm-.35-.127s.214-.188.357-.286l.664-.486c.472-.351.708-.287.708.128 0 .466-.281.804-.351.887.128-.07.319-.102.319.281 0 .287.032.523.115.561l-.402.306c-.057-.07-.057-.204-.057-.319 0-.453-.083-.587-.427-.332l-.549.415v1.015l-.376.281v-2.45"/><path d="M35.125 39.403l.019.774.677-.371c.242-.134.389-.358.389-.612 0-.249-.147-.313-.389-.179l-.696.389zm-.026-1.017l.018.696.647-.361c.191-.102.344-.306.344-.536 0-.262-.128-.281-.344-.166l-.665.367zm.055 2.169l-.462.239v-2.546s.177-.114.378-.212l.752-.413c.421-.223.689-.173.689.255 0 .255-.121.504-.331.721.287-.077.44.083.44.421 0 .402-.255.855-.861 1.186l-.603.349"/><path d="M33.566 40.341l-.424-.911-.335 1.257.759-.345zm-.866.745l-.203.768-.472.217.848-2.967.427-.197 1.097 2.093-.434.197-.264-.566-1 .456"/><path d="M21.462 47.379l-.415-1.135-.409 1.08.824.055zm-.957.325l-.255.676-.491-.038 1.039-2.526.51.038 1.04 2.666-.505-.032-.242-.703-1.097-.082"/><path d="M14.541 41.842l-.364-1.213-.367.932.73.282zm-.855.018l-.23.587-.459-.166.963-2.188.427.159.925 2.775-.453-.121-.197-.66-.976-.387"/><path d="M15.238 44.544v3.211c1.85.804 4.268 1.161 6.895 1.161 2.635 0 5.046-.358 6.896-1.161v-3.209c-2.169.574-4.472.893-6.896.893-3.517.012-6.887-.892-6.889-.893l-.006-.002zm-14.157-13.317l-.011 4.139c4.05 3.279 8.484 6.501 14.079 8.038l3.68-2.207c-5.748-1.173-13.744-5.135-17.748-9.97zm5.859 3.539c-.427-.696-.856-1.346-1.481-2.342v1.385c.491.37 1.481.957 1.481.957zm28.334 1.374zm2.022-1.262c.888-.585 1.574-1.068 1.574-1.068l-.062-1.385-1.512 2.453zm5.908-3.665c-4.005 4.842-12.011 8.81-17.759 9.983l3.675 2.207s4.436-1.376 7.795-3.455c4.784-2.961 6.29-4.734 6.29-4.734v-4.001zm-37.751 8.804v.58c0 .791-.102.759.587 1.206l2.698 1.741v-1.592c-1.152-.603-2.248-1.257-3.285-1.935zm34.447-.73v1.419c0 1.085-.096 1.302-.701 1.71-.957.638-2.456 1.672-4.753 3.024v-2.941c-1.368.658-2.808 1.24-4.314 1.708l-.011 4.308c-2.041.893-4.931 1.487-7.987 1.487-3.055 0-5.955-.594-7.996-1.487v-4.309c-1.506-.469-2.944-1.048-4.309-1.705v2.939c-2.303-1.353-3.802-2.386-4.759-3.024-.606-.408-.701-.625-.701-1.71v-1.423c-1.619-1.131-3.078-2.315-4.369-3.445v-6.258h4.925c1.997 3.126 3.462 5.365 4.234 6.615 2.737 1.563 5.673 2.813 8.518 3.598.868.236 1.716.434 2.546.58v3.891c.625.045 3.208.045 3.834 0v-3.891c.823-.147 1.678-.344 2.539-.58 2.845-.785 5.843-2.035 8.586-3.598 0 0 2.204-3.535 4.166-6.615l4.925.004.006 6.254c-1.292 1.131-2.757 2.316-4.376 3.448zm-1.665 2.517c.689-.447.58-.415.58-1.206v-.576c-1.038.678-2.134 1.33-3.285 1.933v1.591s1.531-.988 2.705-1.741"/><path d="M6.089 1.1v19.296c0 7.447 6.73 15.048 16.122 17.862 9.366-2.815 16.097-10.416 16.097-17.862v-19.296h-32.219zm16.122 38.259c-9.392-2.508-17.223-10.569-17.223-18.988v-20.371h34.446v20.371c0 8.419-7.831 16.481-17.223 18.989"/><path d="M12.379 42.013l.44.172v-2.513l-.44-.191v2.533"/><path d="M10.184 38.855l.676.326v2.162l.434.211v-2.131l.714.293v-.383l-1.824-.868v.389" fill-rule="evenodd"/><path d="M7.996 39.812l.395.236v-1.875l.012.006.97 2.436.402.23v-2.577l-.357-.204v1.901l-.012-.006-.97-2.437-.44-.255v2.546"/><path d="M6.025 38.594l1.55.995v-.389l-1.173-.753v-.746l1.065.683v-.364l-1.065-.683v-.67l1.155.74v-.383l-1.531-.976v2.546" fill-rule="evenodd"/><path d="M5.266 38.058l.402.262v-2.501l-.402-.262v2.501"/><path d="M4.883 35.985c-.038-.568-.376-1.097-.803-1.365-.561-.351-.899.044-.899.778 0 .727.338 1.538.899 1.888.46.281.778.064.803-.536l-.319-.198c-.026.358-.191.555-.485.37-.402-.248-.574-.836-.574-1.32 0-.491.172-.868.574-.618.281.166.421.472.472.797l.331.204"/><path d="M1.502 34.345c.006.632.338 1.142.74 1.423.351.242.702.262.702-.306 0-.268-.108-.632-.344-.887l-.504-.555c-.128-.141-.211-.3-.211-.478 0-.255.179-.204.319-.102.217.147.37.37.383.714l.306.211c0-.529-.306-1.027-.676-1.282-.32-.224-.645-.204-.645.306 0 .255.089.587.389.912.242.262.409.427.529.574.07.09.147.224.147.415 0 .198-.102.32-.376.128-.248-.173-.447-.466-.447-.855l-.313-.217"/><path d="M24.85 46.594c-.064-.561-.549-.855-1.161-.823-.804.045-1.276.689-1.263 1.436.013.74.504 1.334 1.308 1.282.657-.038 1.104-.491 1.135-1.116l-.46.026c-.032.376-.262.695-.683.721-.574.038-.823-.447-.83-.938-.012-.498.223-1.008.797-1.04.395-.026.6.185.683.478l.472-.026"/><path d="M41.173 36.469l1.352-1.206v-.376l-1.027.919v-.721l.931-.83v-.351l-.931.836v-.645l1.008-.906v-.364l-1.334 1.193v2.45" fill-rule="evenodd"/><path d="M29.952 42.836l1.799-.663v-.389l-1.34.485v-2.162l-.46.185v2.546" fill-rule="evenodd"/><path d="M38.417 37.152c-.083-.408-.338-.651-.772-.249-.433.395-.529.964-.453 1.371.077.409.32.63.765.255.683-.757.459-1.378.459-1.378zm-1.576 1.454c-.121-.619.141-1.454.74-2.009.606-.555 1.065-.383 1.186.23 0 0 .257 1.01-.746 2.003-.596.511-1.065.382-1.18-.223" fill-rule="evenodd"/><path d="M12.283 23.985c-1.004 1-1.784 2.329-2.381 4.089v-4.089h2.381zm14.799 0c.923 2.661 2.691 4.425 5.98 5.522h-21.727c3.31-1.097 5.082-2.861 6.006-5.524l9.741.002zm7.413 0v4.089c-.589-1.769-1.368-3.098-2.376-4.092l2.376.003" fill-rule="evenodd"/><path d="M9.902 23.985v-17.638c1.433 4.223 3.916 5.963 8.036 6.603-.64-4.121-2.354-6.603-6.603-8.036h21.727c-4.222 1.433-5.937 3.916-6.577 8.036 4.12-.64 6.603-2.38 8.01-6.603v17.638h-2.376c-1.398-1.382-3.239-2.116-5.634-2.488.141.905.335 1.732.597 2.486l-9.741.002c.262-.757.456-1.584.597-2.488-2.403.358-4.249 1.1-5.655 2.493l-2.381-.005zm18.543-9.239l2.26-.002c.589 0 .973.102.973.589 0 .563-.307.742-.845.742h-2.388v-1.329zm-12.501 1.329h-1.719c-.128.231-.409.384-.691.384-.435 0-.793-.333-.793-.768v-.077h-.128c-.153 0-.256-.102-.256-.256 0-.128.102-.231.256-.231h.128v-.077c0-.409.358-.768.793-.768.307 0 .589.204.691.486l1.734-.023-.014 1.329zm-2.14-.46h-.555v.043c0 .166.121.3.274.3.153 0 .281-.134.281-.3v-.043zm-.555-.486h.555c0-.185-.128-.319-.281-.319-.153 0-.274.134-.274.3v.019zm15.195 3.226l2.26-.002c.589 0 .973.103.973.589 0 .563-.307.742-.845.742h-2.388v-1.329zm-12.501 1.329h-1.719c-.128.231-.409.384-.691.384-.435 0-.793-.333-.793-.768v-.077h-.128c-.153 0-.256-.103-.256-.256 0-.128.102-.231.256-.231h.128v-.077c0-.409.358-.768.793-.768.307 0 .589.204.691.486l1.734-.023-.014 1.329zm-2.14-.46h-.555v.043c0 .166.121.3.274.3.153 0 .281-.134.281-.3v-.043zm-.555-.487h.555c0-.184-.128-.318-.281-.318-.153 0-.274.134-.274.3v.019zm8.55.998c-.538-.307-.921-.333-1.689-.333h-1.791v-5.527c.895 0 .895-.231 1.919-.231.973 0 1.561.64 1.561 1.28v4.811zm.819 0c.511-.307.921-.333 1.689-.333h1.791v-5.527c-.896 0-.896-.231-1.919-.231-.973 0-1.561.64-1.561 1.28v4.811zm-.409 1.458c1.151 0 1.049-.436 1.843-.436h3.327v-6.576l-.461-.307v6.347h-2.585c-1.484 0-1.1.435-2.124.435-1.049 0-.64-.435-2.124-.435h-2.585v-6.347l-.46.307v6.576h3.327c.768 0 .665.436 1.842.436" fill-rule="evenodd"/><path d="M54.195 45.01l-.826 1.992h1.663l-.837-1.992zm-2.725 3.996c.194-.022.372-.055.499-.221.1-.128.281-.493.544-1.111l1.764-4.151h.276l2.102 4.786c.14.319.243.496.309.558.111.097.309.121.449.14v.311h-2.296v-.315c.165-.014.37-.012.524-.077.025-.011.055-.043.055-.154 0-.127-.099-.393-.148-.509l-.324-.752h-2.071l-.369.946-.057.257c0 .113.042.178.122.216.104.048.331.062.449.072v.315h-1.827v-.313" fill-rule="evenodd"/><path d="M63.375 43.942c-.158.01-.527.031-.652.147-.063.056-.115.213-.115.524v2.671c0 .431.059.758.17.986.204.409.592.621 1.192.621 1.253 0 1.484-.733 1.484-1.782v-2.174c0-.461-.059-.708-.139-.794-.142-.153-.454-.182-.643-.201v-.318h2.105v.318c-.182.02-.525.055-.656.214-.075.092-.127.338-.127.781v2.174c0 .584-.089 1.05-.276 1.391-.346.632-1.002.938-1.935.938-.921 0-1.572-.301-1.918-.925-.186-.332-.276-.764-.276-1.289v-2.61c0-.307-.052-.464-.115-.52-.122-.115-.485-.139-.64-.152v-.32h2.541v.321"/><path d="M71.28 48.395c.316.371.705.554 1.171.554.246 0 .456-.078.633-.232.174-.149.264-.359.264-.641 0-.248-.088-.463-.269-.65-.291-.291-1.178-.803-1.505-1.007-.219-.139-.398-.281-.532-.427-.248-.277-.377-.589-.377-.93 0-.944.696-1.558 1.619-1.558.204 0 .442.05.714.148l.432.134.146-.041c.056-.068.073-.157.093-.24h.316l.201 1.95h-.362c-.105-.413-.268-.877-.639-1.137-.288-.204-.568-.302-.84-.302-.406 0-.766.241-.766.676 0 .196.059.36.175.495.122.145.316.302.587.468l.734.453c.462.284.797.551.993.799.197.255.295.557.295.901 0 .462-.177.852-.526 1.161-.347.31-.79.462-1.321.462-.269 0-.55-.051-.84-.152-.291-.101-.431-.142-.453-.142l-.125.046-.067.235h-.331l-.273-1.95h.35c.124.33.272.656.503.927"/><path d="M83.13 43.622l.05 1.591h-.358c-.051-.232-.157-.709-.364-.89-.122-.111-.407-.182-.893-.182h-.379v4.188c0 .329.054.486.117.536.137.104.534.128.694.139v.317h-2.606v-.316c.695-.053.791-.057.791-.773v-4.091h-.379c-.461 0-.75.068-.893.182-.221.178-.313.652-.358.892h-.364l.055-1.591h4.885"/><path d="M90.136 45.159c0-.455-.183-.752-.545-.913-.197-.088-.465-.135-.809-.135-.245 0-.362.021-.39.039l-.038.164v1.971c.552-.025.939-.086 1.171-.178.409-.168.612-.478.612-.948zm-2.9 3.681c.056-.068.098-.257.099-.61v-3.617c0-.295-.048-.453-.11-.516-.113-.119-.457-.144-.608-.156v-.32h2.399c.488 0 .9.061 1.233.189.64.243.969.699.969 1.357 0 .436-.144.782-.439 1.024-.255.211-.589.355-.997.434l1.628 2.003c.231.283.39.341.745.376v.314h-1.474l-1.989-2.568-.339.014v1.562c0 .314.048.471.11.527.126.108.489.135.645.149v.315h-2.492v-.315c.143-.013.52-.043.62-.164" fill-rule="evenodd"/><path d="M97.948 45.01l-.827 1.992h1.663l-.837-1.992zm-2.725 3.996c.194-.022.372-.055.499-.221.1-.128.281-.493.543-1.111l1.764-4.151h.276l2.103 4.786c.139.319.242.496.309.558.11.097.309.121.448.14v.311h-2.296v-.315c.165-.014.37-.012.525-.077.025-.011.055-.043.055-.154 0-.127-.099-.394-.148-.509l-.324-.752h-2.071l-.369.946-.057.257c0 .113.042.178.122.216.104.048.33.062.449.072v.315h-1.827v-.313" fill-rule="evenodd"/><path d="M105.193 48.854c.059-.05.108-.205.109-.527v-3.715c0-.298-.048-.457-.11-.519-.116-.119-.471-.141-.624-.152v-.32h2.533v.322c-.171.009-.509.023-.652.137-.07.057-.123.199-.123.476v4.013l.033.177.143.056.191.016.387.003c.744 0 1.227-.062 1.468-.175.342-.16.598-.65.742-.946h.378l-.456 1.619h-4.645v-.314c.149-.016.505-.049.625-.151"/><path d="M113.745 48.864c.064-.05.117-.206.117-.536v-3.715c0-.309-.053-.468-.121-.527-.134-.119-.525-.134-.69-.141v-.322h2.643v.322c-.164.008-.556.022-.69.141-.068.059-.121.218-.121.527v3.715c0 .329.054.486.117.536.136.104.534.128.694.139v.317h-2.643v-.317c.16-.011.557-.036.694-.139"/><path d="M121.886 45.01l-.827 1.992h1.663l-.837-1.992zm-2.725 3.996c.194-.022.372-.055.499-.221.1-.128.281-.493.544-1.111l1.764-4.151h.276l2.102 4.786c.14.319.243.496.309.558.11.097.309.121.448.14v.311h-2.296v-.315c.165-.014.37-.012.525-.077.025-.011.055-.043.055-.154 0-.127-.099-.393-.148-.509l-.324-.752h-2.071l-.369.946-.057.257c0 .113.042.178.122.216.104.048.33.062.449.072v.315h-1.827v-.313" fill-rule="evenodd"/><path d="M139.401 5.297v4.103h.872c1.264 0 2.267-1.003 2.267-2.18 0-1.178-1.003-2.093-2.267-2.093 0 0-.409-.049-.872.169zm4.926 1.924c.012 1.178-.959 2.202-2.354 2.616l3.03 3.967c.306.349.589.763 1.003.763h.066v.284h-2.354l-3.64-4.796h-.676v3.422c0 .698.283 1.09.959 1.09h.066v.284h-3.749v-.284h.109c.654 0 .937-.392.937-1.09v-7.651c0-.676-.284-1.09-.937-1.09h-.109v-.283h2.725c4.011-.218 4.91 1.117 4.926 2.768" fill-rule="evenodd"/><path d="M57.32 14.806v-.371h-.589c-.632 0-1.155-.589-1.155-1.242v-10.463h2.42c1.003 0 1.613.741 1.679 2.202h.327l-.131-3.139c0-.043-.066-.109-.087-.109h-10.616l-.088.109-.131 3.139h.349c.066-1.461.676-2.202 1.679-2.202h2.42v10.463c0 .654-.523 1.242-1.177 1.242h-.61v.371h5.711"/><path d="M97.308 2.97c0-.632-.371-.916-.872-.916h-.502v-.392h3.771v.392h-.436c-.567 0-.894.284-.894.916v7.629c0 2.463-1.897 4.359-5.014 4.359s-5.166-1.94-5.166-4.578v-7.106c0-.632-.501-1.221-1.177-1.221h-.153v-.392h4.839v.392h-.175c-.654 0-1.177.589-1.177 1.221v7.171c0 1.918 1.199 3.466 3.204 3.466 1.919 0 3.749-1.155 3.749-3.313v-7.629"/><path d="M68.132 9.858h-4.446v3.575c0 .698.284 1.09.937 1.09h.066v.284h-3.727v-.284h.066c.719 0 .937-.392.937-1.09v-7.651c0-.676-.218-1.09-.937-1.09h-.066v-.284h3.727v.284h-.066c-.654 0-.937.414-.937 1.09v3.335h4.446v-3.335c0-.676-.284-1.09-.981-1.09h-.066v-.284h3.771v.284h-.109c-.676 0-.937.414-.937 1.09v7.651c0 .698.262 1.09.937 1.09h.109v.284h-3.771v-.284h.066c.698 0 .981-.392.981-1.09v-3.575"/><path d="M74.802 9.683v3.836c0 .305.24.523.523.523h2.616c1.438 0 2.093-.85 2.441-2.027h.305l-.872 2.79h-7.738v-.284h.065c.676 0 .959-.392.959-1.09v-7.651c0-.676-.284-1.09-.959-1.09h-.065v-.284h7.498l.175 2.376h-.262c-.066-1.09-.676-1.679-1.461-1.679h-3.226v3.793h3.008c.502 0 .741-.545.741-.981v-.066h.305v2.878h-.305v-.066c0-.48-.24-.981-.741-.981h-3.008"/><path d="M114.551 13.433c0 .698.284 1.09.959 1.09h.043v.284h-3.706v-.284h.043c.719 0 1.003-.392 1.003-1.09v-7.651c0-.676-.284-1.09-1.003-1.09h-.043v-.284h3.706v.284h-.043c-.676 0-.959.414-.959 1.09v7.651"/><path d="M122.028 14.74l3.597-9.134c.283-.588.545-.915.959-.915v-.284h-2.398v.284h.153c.305 0 .632.305.501.698l-2.572 6.409-2.812-6.409c-.153-.392.196-.698.458-.698h.349v-.284h-3.531v.284c.414 0 .698.305.959.872l3.967 9.177c.087.109.283.153.371 0"/><path d="M130.463 9.683v3.836c0 .305.24.523.524.523h2.615c1.417 0 2.071-.85 2.441-2.027h.305l-.893 2.79h-7.717v-.284h.066c.676 0 .937-.392.937-1.09v-7.651c0-.676-.262-1.09-.937-1.09h-.066v-.284h7.477l.196 2.376h-.262c-.065-1.09-.697-1.679-1.46-1.679h-3.227v3.793h2.987c.523 0 .763-.545.763-.981v-.066h.305v2.878h-.305v-.066c0-.48-.24-.981-.763-.981h-2.987"/><path d="M147.161 11.275h-.305v3.531h.305c.13-.458.523-.676.894-.458 1.264.676 2.833.785 3.923-.066 1.046-.763 1.504-2.267.85-3.444-.61-1.155-2.245-2.049-3.51-2.703-1.461-.828-1.503-2.223-.392-2.943 1.351-.785 3.357.589 3.357 2.572h.262v-3.357h-.262c-.087.501-.458.545-.981.326-1.438-.654-2.616-.632-3.618.284-1.133 1.046-1.395 3.161.458 4.295 1.112.698 2.616 1.482 3.161 2.223.502.676.589 1.483-.37 2.311-1.396 1.22-3.771-.262-3.771-2.572"/><path d="M102.758 4.408h-2.659v.284c.436 0 .719.043.937.305l.697.806v7.935c0 .501-.458.763-.915.763h-.109v.305h2.899v-.305h-.066c-.479 0-.959-.262-.959-.763v-6.888l6.866 7.956h.218v-9.33c0-.523.479-.785.937-.785h.066v-.284h-2.878v.284h.087c.458 0 .916.262.916.785v5.929l-6.038-6.998"/><path d="M156.861 13.433c0 .698.284 1.09.959 1.09h.066v.284h-3.749v-.284h.109c.676 0 .937-.392.937-1.09v-7.651c0-.676-.262-1.09-.937-1.09h-.109v-.284h3.749v.284h-.066c-.676 0-.959.414-.959 1.09v7.651"/><path d="M172.84 10.381l-3.183-4.861c-.327-.61-.676-.828-1.09-.828v-.305h3.684v.305h-.24c-.306 0-.589.371-.393.763l2.616 3.989 2.376-4.054c.175-.284-.043-.698-.327-.698h-.261v-.305h2.55v.305c-.458 0-.871.305-1.177.785l-2.833 4.839v3.138c0 .72.283 1.068.981 1.068h.066v.284h-3.793v-.284h.066c.698 0 .959-.392.959-1.112v-3.03"/><path d="M164.316 13.498c0 .698.284 1.024.959 1.024h.043v.284h-3.706v-.284h.043c.676 0 1.003-.326 1.003-1.024v-8.305h-2.092c-.785 0-1.243.545-1.308 1.679h-.24l.088-2.398.065-.066h8.588l.066.066.109 2.398h-.262c-.066-1.134-.48-1.679-1.286-1.679h-2.071v8.305"/><path d="M65.146 32.724c0 .698.284 1.068.937 1.068h.109v.262h-3.749v-.262h.066c.698 0 .959-.414.959-1.09v-7.63c0-.698-.262-1.133-.959-1.133h-.066v-.284h7.956l.174 2.398h-.24c-.066-1.068-.697-1.679-1.461-1.679h-3.727v3.771h3.03c.523 0 .741-.48.741-.981v-.066h.284v2.878h-.284v-.043c0-.502-.218-1.003-.741-1.003h-3.03v3.793"/><path d="M103.118 28.932v3.836c0 .327.262.545.567.545h2.594c1.418 0 2.071-.872 2.442-2.049h.283l-.85 2.79h-7.738v-.262h.066c.698 0 .959-.414.959-1.09v-7.651c0-.676-.261-1.112-.959-1.112h-.066v-.284h7.477l.174 2.398h-.24c-.043-1.112-.698-1.679-1.483-1.679h-3.226v3.771h3.03c.48 0 .763-.48.763-.981v-.066h.262v2.878h-.262v-.043c0-.502-.283-1.003-.763-1.003h-3.03"/><path d="M97.559 24.659c0-.458-.305-.719-.719-.719h-.284v-.284h2.834v.284h-.327c-.414 0-.676.262-.676.719v6.082c0 1.962-1.504 3.422-3.967 3.422-2.485 0-4.12-1.526-4.12-3.619v-5.602c0-.502-.392-1.003-.915-1.003h-.022v-.284h3.641v.284h-.066c-.48 0-.894.501-.894 1.003v5.667c0 1.504.937 2.768 2.507 2.768 1.547 0 3.008-.937 3.008-2.638v-6.082"/><path d="M112.274 28.932v3.836c0 .327.24.545.523.545h2.616c1.439 0 2.071-.872 2.441-2.049h.306l-.894 2.79h-7.695v-.262h.043c.676 0 .959-.414.959-1.09v-7.651c0-.676-.283-1.112-.959-1.112h-.043v-.284h7.455l.175 2.398h-.24c-.065-1.112-.697-1.679-1.461-1.679h-3.225v3.771h2.986c.523 0 .807-.48.807-.981v-.066h.262v2.878h-.262v-.043c0-.502-.284-1.003-.807-1.003h-2.986"/><path d="M140.197 32.659c0 .326.262.654.545.654h2.419c1.417 0 2.071-.894 2.441-2.093h.305l-.85 2.834h-7.564v-.284h.088c.654 0 .937-.414.937-1.112v-7.586c0-.698-.283-1.133-.937-1.133h-.088v-.284h3.749v.284h-.065c-.72 0-.982.436-.982 1.133v7.586"/><path d="M130.061 30.544h-.305v3.51h.305c.109-.48.501-.676.894-.458 1.264.654 2.833.807 3.945-.043 1.046-.785 1.504-2.267.85-3.444-.61-1.177-2.289-2.049-3.509-2.725-1.483-.828-1.547-2.245-.392-2.921 1.308-.806 3.335.545 3.335 2.572h.305v-3.401h-.305c-.109.523-.458.589-.959.371-1.461-.698-2.659-.632-3.662.262-1.111 1.046-1.351 3.183.502 4.316 1.111.698 2.615 1.461 3.161 2.224.458.632.589 1.461-.371 2.311-1.395 1.199-3.793-.284-3.793-2.572"/><path d="M120.774 23.656h-2.659v.284c.436 0 .741.066.916.305.262.284.436.458.741.828v7.913c0 .523-.48.785-.938.785h-.087v.284h2.878v-.284h-.066c-.48 0-.937-.262-.937-.785v-6.888l6.845 7.956h.217v-9.33c0-.501.458-.785.916-.785h.087v-.284h-2.855v.284h.066c.458 0 .959.284.959.785v5.951l-6.082-7.019"/><path d="M159.357 23.656h-2.659v.284c.414 0 .72.066.894.305.262.284.436.458.741.828v7.913c0 .523-.48.785-.937.785h-.066v.284h2.856v-.284h-.044c-.501 0-.959-.262-.959-.785v-6.888l6.845 7.956h.218v-9.33c0-.501.458-.785.915-.785h.109v-.284h-2.812v.284c.458 0 .959.284.959.785v5.951l-6.06-7.019"/><path d="M155.32 32.838c.24.567.545.894.959.894h.109v.284h-3.618v-.284h.283c.327 0 .654-.327.502-.719l-1.003-2.311h-3.684l-.982 2.311c-.152.393.218.719.589.719h.131v.284h-2.768v-.284h.196c.414 0 .785-.327 1.068-.937l3.836-9.286c.228-.259.354.035.354.035l4.027 9.295zm-6.169-2.899h3.051l-1.52-3.518-1.532 3.518" fill-rule="evenodd"/><path d="M178.567 28.866c0 2.921-2.332 5.21-5.362 5.21h-4.817v-.284h.087c.676 0 .937-.414.937-1.112v-7.586c0-.698-.262-1.133-.937-1.133h-.087v-.284h3.951c6.648-.207 6.229 5.188 6.229 5.188zm-7.258-4.447v8.85c.414.109.632.131 1.024.131 3.139 0 4.643-1.853 4.643-4.555.021-.115.185-4.72-4.67-4.6 0 0-.621-.092-.997.174" fill-rule="evenodd"/><path d="M55.184 20.612c3.82.055 6.234 2.987 6.234 6.692 0 3.662-2.441 6.67-6.234 6.67s-6.235-3.008-6.235-6.67c.327-6.992 6.235-6.692 6.235-6.692zm-3.902 6.692c.011 3.499 1.619 5.924 3.902 5.886 2.136 0 3.902-2.147 3.902-5.984-.081-5.041-2.67-5.722-3.902-5.788-2.883.147-3.911 3.037-3.902 5.886" fill-rule="evenodd"/><path d="M82.268 20.828s6.207.011 6.311 6.785c0 3.008-1.592 5.444-4.208 6.294.567 1.286 2.115 2.746 4.251 2.878v.349c-2.965 0-5.58-.959-7.564-3.008-3.096-.589-5.014-3.335-5.014-6.605 0-3.688 2.419-6.663 6.224-6.692zm0 .806s-3.798-.18-3.848 5.886c0 3.858 1.722 5.886 3.903 5.886 2.114 0 3.88-2.027 3.88-5.886 0-3.858-1.82-5.886-3.934-5.886" fill-rule="evenodd"/></g></svg>